<?xml version="1.0" encoding="utf-8"?>
<svg width="276px" height="242px" viewBox="0 0 276 242" version="1.1" xmlns:xlink="http://www.w3.org/1999/xlink" xmlns="http://www.w3.org/2000/svg">
  <desc>Created with Lunacy</desc>
  <g id="Group-4">
    <g id="Group-3">
      <path d="M0 25C0 11.1929 11.1929 0 25 0C38.8071 0 50 11.1929 50 25C50 38.8071 38.8071 50 25 50C11.1929 50 0 38.8071 0 25Z" transform="translate(49.24171 0)" id="Rectangle" fill="#333333" stroke="none" />
      <path d="M19.999 0L20.001 0Q20.4919 0 20.9823 0.0240897Q21.4727 0.0481793 21.9612 0.0963006Q22.4498 0.144422 22.9355 0.216459Q23.4211 0.288496 23.9026 0.384275Q24.3841 0.480054 24.8604 0.599345Q25.3366 0.718635 25.8064 0.86115Q26.2762 1.00366 26.7385 1.16906Q27.2007 1.33446 27.6543 1.52233Q28.1079 1.71021 28.5517 1.92012Q28.9955 2.13003 29.4285 2.36146Q29.8614 2.59289 30.2825 2.84529Q30.7036 3.09768 31.1118 3.37044Q31.5201 3.64319 31.9144 3.93565Q32.3087 4.22811 32.6882 4.53956Q33.0677 4.85102 33.4315 5.18072Q33.7953 5.51042 34.1424 5.85757Q34.4896 6.20472 34.8193 6.56849Q35.149 6.93226 35.4604 7.31177Q35.7719 7.69128 36.0643 8.08561Q36.3568 8.47994 36.6296 8.88815Q36.9023 9.29636 37.1547 9.71746Q37.4071 10.1386 37.6385 10.5715Q37.87 11.0045 38.0799 11.4483Q38.2898 11.8921 38.4777 12.3457Q38.6655 12.7993 38.8309 13.2615Q38.9963 13.7238 39.1388 14.1936Q39.2814 14.6634 39.4006 15.1396Q39.5199 15.6159 39.6157 16.0974Q39.7115 16.5789 39.7835 17.0645Q39.8556 17.5502 39.9037 18.0388Q39.9518 18.5273 39.9759 19.0177Q40 19.5081 40 19.999L40 96.001Q40 96.492 39.9759 96.9823Q39.9518 97.4727 39.9037 97.9613Q39.8556 98.4498 39.7835 98.9355Q39.7115 99.4211 39.6157 99.9026Q39.5199 100.384 39.4007 100.86Q39.2814 101.337 39.1388 101.806Q38.9963 102.276 38.8309 102.738Q38.6655 103.201 38.4777 103.654Q38.2898 104.108 38.0799 104.552Q37.87 104.995 37.6385 105.428Q37.4071 105.861 37.1547 106.283Q36.9023 106.704 36.6296 107.112Q36.3568 107.52 36.0643 107.914Q35.7719 108.309 35.4604 108.688Q35.149 109.068 34.8193 109.432Q34.4896 109.795 34.1424 110.142Q33.7953 110.49 33.4315 110.819Q33.0677 111.149 32.6882 111.46Q32.3087 111.772 31.9144 112.064Q31.5201 112.357 31.1118 112.63Q30.7036 112.902 30.2825 113.155Q29.8614 113.407 29.4285 113.639Q28.9955 113.87 28.5517 114.08Q28.1079 114.29 27.6543 114.478Q27.2007 114.666 26.7385 114.831Q26.2762 114.996 25.8064 115.139Q25.3366 115.281 24.8604 115.401Q24.3841 115.52 23.9026 115.616Q23.4211 115.711 22.9355 115.784Q22.4498 115.856 21.9612 115.904Q21.4727 115.952 20.9823 115.976Q20.4919 116 20.001 116L19.999 116Q19.5081 116 19.0177 115.976Q18.5273 115.952 18.0388 115.904Q17.5502 115.856 17.0645 115.784Q16.5789 115.711 16.0974 115.616Q15.6159 115.52 15.1396 115.401Q14.6634 115.281 14.1936 115.139Q13.7238 114.996 13.2615 114.831Q12.7993 114.666 12.3457 114.478Q11.8921 114.29 11.4483 114.08Q11.0045 113.87 10.5715 113.639Q10.1386 113.407 9.71746 113.155Q9.29636 112.902 8.88815 112.63Q8.47994 112.357 8.08561 112.064Q7.69128 111.772 7.31177 111.46Q6.93226 111.149 6.56849 110.819Q6.20472 110.49 5.85757 110.142Q5.51042 109.795 5.18072 109.432Q4.85102 109.068 4.53956 108.688Q4.22811 108.309 3.93565 107.914Q3.64319 107.52 3.37044 107.112Q3.09768 106.704 2.84529 106.283Q2.59289 105.861 2.36146 105.428Q2.13003 104.995 1.92012 104.552Q1.71021 104.108 1.52233 103.654Q1.33446 103.201 1.16906 102.738Q1.00366 102.276 0.86115 101.806Q0.718635 101.337 0.599345 100.86Q0.480054 100.384 0.384275 99.9026Q0.288496 99.4211 0.216459 98.9355Q0.144422 98.4498 0.0963006 97.9612Q0.0481793 97.4727 0.0240897 96.9823Q0 96.492 0 96.001L0 19.999Q0 19.5081 0.0240897 19.0177Q0.0481793 18.5273 0.0963006 18.0388Q0.144422 17.5502 0.216459 17.0645Q0.288496 16.5789 0.384275 16.0974Q0.480054 15.6159 0.599345 15.1396Q0.718635 14.6634 0.86115 14.1936Q1.00366 13.7238 1.16906 13.2615Q1.33446 12.7993 1.52233 12.3457Q1.71021 11.8921 1.92012 11.4483Q2.13003 11.0045 2.36146 10.5715Q2.59289 10.1386 2.84529 9.71746Q3.09768 9.29636 3.37044 8.88815Q3.64319 8.47994 3.93565 8.08561Q4.22811 7.69128 4.53956 7.31177Q4.85102 6.93226 5.18072 6.56849Q5.51042 6.20472 5.85757 5.85757Q6.20472 5.51042 6.56849 5.18072Q6.93226 4.85102 7.31177 4.53956Q7.69128 4.22811 8.08561 3.93565Q8.47994 3.64319 8.88815 3.37044Q9.29636 3.09768 9.71746 2.84529Q10.1386 2.59289 10.5715 2.36146Q11.0045 2.13003 11.4483 1.92012Q11.8921 1.71021 12.3457 1.52233Q12.7993 1.33446 13.2615 1.16906Q13.7238 1.00366 14.1936 0.86115Q14.6634 0.718635 15.1396 0.599345Q15.6159 0.480054 16.0974 0.384275Q16.5789 0.288496 17.0645 0.216459Q17.5502 0.144422 18.0388 0.0963006Q18.5273 0.0481793 19.0177 0.0240897Q19.5081 0 19.999 0Z" transform="translate(54.24171 50)" id="Rectangle-2" fill="#333333" stroke="none" />
      <path d="M9.999 0L10.001 0Q10.2465 0 10.4916 0.0120442Q10.7368 0.0240885 10.9811 0.0481479Q11.2254 0.0722074 11.4682 0.108224Q11.711 0.144241 11.9517 0.192128Q12.1925 0.240015 12.4306 0.299657Q12.6687 0.3593 12.9036 0.430553Q13.1384 0.501807 13.3696 0.584501Q13.6007 0.667194 13.8274 0.761128Q14.0542 0.855062 14.2761 0.960011Q14.498 1.06496 14.7145 1.18067Q14.931 1.29638 15.1415 1.42257Q15.352 1.54876 15.5561 1.68514Q15.7602 1.82151 15.9574 1.96773Q16.1546 2.11395 16.3443 2.26967Q16.534 2.42539 16.7159 2.59023Q16.8978 2.75507 17.0714 2.92864Q17.2449 3.10221 17.4098 3.28408Q17.5746 3.46596 17.7303 3.6557Q17.886 3.84545 18.0323 4.0426Q18.1785 4.23976 18.3149 4.44385Q18.4512 4.64795 18.5774 4.85849Q18.7036 5.06903 18.8193 5.2855Q18.935 5.50198 19.04 5.72388Q19.1449 5.94577 19.2389 6.17255Q19.3328 6.39932 19.4155 6.63044Q19.4982 6.86155 19.5694 7.09644Q19.6407 7.33134 19.7003 7.56944Q19.76 7.80755 19.8079 8.04829Q19.8558 8.28904 19.8918 8.53184Q19.9278 8.77465 19.9519 9.01893Q19.9759 9.26321 19.988 9.50837Q20 9.75354 20 9.999L20 87.001Q20 87.2465 19.988 87.4916Q19.9759 87.7368 19.9519 87.9811Q19.9278 88.2253 19.8918 88.4681Q19.8558 88.711 19.8079 88.9517Q19.76 89.1925 19.7003 89.4306Q19.6407 89.6687 19.5694 89.9036Q19.4982 90.1385 19.4155 90.3696Q19.3328 90.6007 19.2389 90.8274Q19.1449 91.0542 19.04 91.2761Q18.935 91.498 18.8193 91.7145Q18.7036 91.931 18.5774 92.1415Q18.4512 92.352 18.3149 92.5561Q18.1785 92.7602 18.0323 92.9574Q17.886 93.1545 17.7303 93.3443Q17.5746 93.534 17.4098 93.7159Q17.2449 93.8978 17.0714 94.0714Q16.8978 94.2449 16.7159 94.4098Q16.534 94.5746 16.3443 94.7303Q16.1546 94.886 15.9574 95.0323Q15.7602 95.1785 15.5561 95.3149Q15.352 95.4512 15.1415 95.5774Q14.931 95.7036 14.7145 95.8193Q14.498 95.935 14.2761 96.04Q14.0542 96.1449 13.8274 96.2389Q13.6007 96.3328 13.3696 96.4155Q13.1384 96.4982 12.9036 96.5694Q12.6687 96.6407 12.4306 96.7003Q12.1925 96.76 11.9517 96.8079Q11.711 96.8558 11.4682 96.8918Q11.2254 96.9278 10.9811 96.9519Q10.7368 96.9759 10.4916 96.988Q10.2465 97 10.001 97L9.999 97Q9.75354 97 9.50837 96.9879Q9.26321 96.9759 9.01893 96.9519Q8.77465 96.9278 8.53184 96.8918Q8.28904 96.8558 8.04829 96.8079Q7.80755 96.76 7.56944 96.7003Q7.33133 96.6407 7.09644 96.5694Q6.86155 96.4982 6.63044 96.4155Q6.39932 96.3328 6.17255 96.2389Q5.94577 96.1449 5.72387 96.04Q5.50198 95.935 5.2855 95.8193Q5.06902 95.7036 4.85849 95.5774Q4.64795 95.4512 4.44385 95.3149Q4.23976 95.1785 4.0426 95.0323Q3.84545 94.886 3.6557 94.7303Q3.46596 94.5746 3.28408 94.4098Q3.10221 94.2449 2.92864 94.0714Q2.75507 93.8978 2.59023 93.7159Q2.42539 93.534 2.26967 93.3443Q2.11395 93.1545 1.96773 92.9574Q1.82151 92.7602 1.68514 92.5561Q1.54876 92.352 1.42257 92.1415Q1.29638 91.931 1.18067 91.7145Q1.06496 91.498 0.960011 91.2761Q0.855062 91.0542 0.761128 90.8274Q0.667194 90.6007 0.584501 90.3696Q0.501807 90.1385 0.430553 89.9036Q0.3593 89.6687 0.299657 89.4306Q0.240015 89.1925 0.192128 88.9517Q0.144241 88.711 0.108224 88.4682Q0.0722074 88.2254 0.0481479 87.9811Q0.0240885 87.7368 0.0120442 87.4916Q0 87.2465 0 87.001L0 9.999Q0 9.75354 0.0120442 9.50837Q0.0240885 9.26321 0.0481479 9.01893Q0.0722074 8.77465 0.108224 8.53184Q0.144241 8.28904 0.192128 8.04829Q0.240015 7.80755 0.299657 7.56944Q0.3593 7.33133 0.430553 7.09644Q0.501807 6.86155 0.584501 6.63044Q0.667194 6.39932 0.761128 6.17255Q0.855062 5.94577 0.960011 5.72387Q1.06496 5.50198 1.18067 5.2855Q1.29638 5.06902 1.42257 4.85849Q1.54876 4.64795 1.68514 4.44385Q1.82151 4.23976 1.96773 4.0426Q2.11395 3.84545 2.26967 3.6557Q2.42539 3.46596 2.59023 3.28408Q2.75507 3.10221 2.92864 2.92864Q3.10221 2.75507 3.28408 2.59023Q3.46596 2.42539 3.6557 2.26967Q3.84545 2.11395 4.0426 1.96773Q4.23976 1.82151 4.44385 1.68514Q4.64795 1.54876 4.85849 1.42257Q5.06902 1.29638 5.2855 1.18067Q5.50198 1.06496 5.72387 0.960011Q5.94577 0.855062 6.17255 0.761128Q6.39932 0.667194 6.63044 0.584501Q6.86155 0.501807 7.09644 0.430553Q7.33133 0.3593 7.56944 0.299657Q7.80755 0.240015 8.04829 0.192128Q8.28904 0.144241 8.53184 0.108224Q8.77465 0.0722074 9.01893 0.0481479Q9.26321 0.0240885 9.50837 0.0120442Q9.75354 0 9.999 0Z" transform="matrix(0.8290376 0.5591929 -0.5591929 0.8290376 60.66096 60.81615)" id="Rectangle-3" fill="#333333" stroke="none" />
      <path d="M9.999 0L10.001 0Q10.2465 0 10.4916 0.0120442Q10.7368 0.0240885 10.9811 0.0481479Q11.2254 0.0722074 11.4682 0.108224Q11.711 0.144241 11.9517 0.192128Q12.1925 0.240015 12.4306 0.299657Q12.6687 0.3593 12.9036 0.430554Q13.1384 0.501807 13.3696 0.584501Q13.6007 0.667194 13.8274 0.761128Q14.0542 0.855063 14.2761 0.960011Q14.498 1.06496 14.7145 1.18067Q14.931 1.29638 15.1415 1.42257Q15.352 1.54876 15.5561 1.68514Q15.7602 1.82151 15.9574 1.96773Q16.1546 2.11395 16.3443 2.26967Q16.534 2.42539 16.7159 2.59023Q16.8978 2.75507 17.0714 2.92864Q17.2449 3.10221 17.4098 3.28408Q17.5746 3.46596 17.7303 3.6557Q17.886 3.84545 18.0323 4.0426Q18.1785 4.23976 18.3149 4.44385Q18.4512 4.64795 18.5774 4.85849Q18.7036 5.06903 18.8193 5.2855Q18.935 5.50198 19.04 5.72388Q19.1449 5.94577 19.2389 6.17255Q19.3328 6.39933 19.4155 6.63044Q19.4982 6.86155 19.5694 7.09644Q19.6407 7.33134 19.7003 7.56944Q19.76 7.80755 19.8079 8.04829Q19.8558 8.28904 19.8918 8.53184Q19.9278 8.77465 19.9519 9.01893Q19.9759 9.26321 19.988 9.50837Q20 9.75354 20 9.999L20 87.001Q20 87.2465 19.988 87.4916Q19.9759 87.7368 19.9519 87.9811Q19.9278 88.2253 19.8918 88.4681Q19.8558 88.711 19.8079 88.9517Q19.76 89.1925 19.7003 89.4306Q19.6407 89.6687 19.5694 89.9036Q19.4982 90.1385 19.4155 90.3696Q19.3328 90.6007 19.2389 90.8274Q19.1449 91.0542 19.04 91.2761Q18.935 91.498 18.8193 91.7145Q18.7036 91.931 18.5774 92.1415Q18.4512 92.352 18.3149 92.5561Q18.1785 92.7602 18.0323 92.9574Q17.886 93.1545 17.7303 93.3443Q17.5746 93.534 17.4098 93.7159Q17.2449 93.8978 17.0714 94.0714Q16.8978 94.2449 16.7159 94.4098Q16.534 94.5746 16.3443 94.7303Q16.1546 94.886 15.9574 95.0323Q15.7602 95.1785 15.5561 95.3149Q15.3521 95.4512 15.1415 95.5774Q14.931 95.7036 14.7145 95.8193Q14.498 95.935 14.2761 96.04Q14.0542 96.1449 13.8274 96.2389Q13.6007 96.3328 13.3696 96.4155Q13.1384 96.4982 12.9036 96.5694Q12.6687 96.6407 12.4306 96.7003Q12.1925 96.76 11.9517 96.8079Q11.711 96.8558 11.4682 96.8918Q11.2254 96.9278 10.9811 96.9519Q10.7368 96.9759 10.4916 96.988Q10.2465 97 10.001 97L9.999 97Q9.75354 97 9.50837 96.9879Q9.26321 96.9759 9.01893 96.9519Q8.77465 96.9278 8.53184 96.8918Q8.28904 96.8558 8.04829 96.8079Q7.80755 96.76 7.56944 96.7003Q7.33134 96.6407 7.09644 96.5694Q6.86155 96.4982 6.63044 96.4155Q6.39932 96.3328 6.17255 96.2389Q5.94577 96.1449 5.72388 96.04Q5.50198 95.935 5.2855 95.8193Q5.06903 95.7036 4.85849 95.5774Q4.64795 95.4512 4.44385 95.3149Q4.23976 95.1785 4.0426 95.0323Q3.84545 94.886 3.6557 94.7303Q3.46596 94.5746 3.28408 94.4098Q3.10221 94.2449 2.92864 94.0714Q2.75507 93.8978 2.59023 93.7159Q2.42539 93.534 2.26967 93.3443Q2.11395 93.1545 1.96773 92.9574Q1.82151 92.7602 1.68514 92.5561Q1.54876 92.352 1.42257 92.1415Q1.29638 91.931 1.18067 91.7145Q1.06496 91.498 0.960011 91.2761Q0.855063 91.0542 0.761128 90.8274Q0.667194 90.6007 0.584501 90.3696Q0.501807 90.1385 0.430554 89.9036Q0.3593 89.6687 0.299657 89.4306Q0.240015 89.1925 0.192128 88.9517Q0.144241 88.711 0.108224 88.4682Q0.0722074 88.2254 0.0481479 87.9811Q0.0240885 87.7368 0.0120442 87.4916Q0 87.2465 0 87.001L0 9.999Q0 9.75354 0.0120442 9.50837Q0.0240885 9.26321 0.0481479 9.01893Q0.0722074 8.77465 0.108224 8.53184Q0.144241 8.28904 0.192128 8.04829Q0.240015 7.80755 0.299657 7.56944Q0.3593 7.33134 0.430553 7.09644Q0.501807 6.86155 0.584501 6.63044Q0.667194 6.39932 0.761128 6.17255Q0.855062 5.94577 0.960011 5.72388Q1.06496 5.50198 1.18067 5.2855Q1.29638 5.06903 1.42257 4.85849Q1.54876 4.64795 1.68514 4.44385Q1.82151 4.23976 1.96773 4.0426Q2.11395 3.84545 2.26967 3.6557Q2.42539 3.46596 2.59023 3.28408Q2.75507 3.10221 2.92864 2.92864Q3.10221 2.75507 3.28408 2.59023Q3.46596 2.42539 3.6557 2.26967Q3.84545 2.11395 4.0426 1.96773Q4.23976 1.82151 4.44385 1.68514Q4.64795 1.54876 4.85849 1.42257Q5.06903 1.29638 5.2855 1.18067Q5.50198 1.06496 5.72388 0.960011Q5.94577 0.855062 6.17255 0.761128Q6.39932 0.667194 6.63044 0.584501Q6.86155 0.501807 7.09644 0.430553Q7.33134 0.3593 7.56944 0.299657Q7.80755 0.240015 8.04829 0.192128Q8.28904 0.144241 8.53184 0.108224Q8.77465 0.0722074 9.01893 0.0481479Q9.26321 0.0240885 9.50837 0.0120442Q9.75354 0 9.999 0Z" transform="matrix(0.8290376 -0.5591929 0.5591929 0.8290376 71.66096 70.58337)" id="Rectangle-4" fill="#333333" stroke="none" />
      <path d="M9.999 0L10.001 0Q10.2465 0 10.4916 0.0120442Q10.7368 0.0240885 10.9811 0.0481479Q11.2254 0.0722074 11.4682 0.108224Q11.711 0.144241 11.9517 0.192128Q12.1925 0.240015 12.4306 0.299657Q12.6687 0.3593 12.9036 0.430553Q13.1384 0.501807 13.3696 0.584501Q13.6007 0.667194 13.8274 0.761128Q14.0542 0.855062 14.2761 0.960011Q14.498 1.06496 14.7145 1.18067Q14.931 1.29638 15.1415 1.42257Q15.352 1.54876 15.5561 1.68514Q15.7602 1.82151 15.9574 1.96773Q16.1546 2.11395 16.3443 2.26967Q16.534 2.42539 16.7159 2.59023Q16.8978 2.75507 17.0714 2.92864Q17.2449 3.10221 17.4098 3.28408Q17.5746 3.46596 17.7303 3.6557Q17.886 3.84545 18.0323 4.0426Q18.1785 4.23976 18.3149 4.44385Q18.4512 4.64795 18.5774 4.85849Q18.7036 5.06903 18.8193 5.2855Q18.935 5.50198 19.04 5.72388Q19.1449 5.94577 19.2389 6.17255Q19.3328 6.39932 19.4155 6.63044Q19.4982 6.86155 19.5694 7.09644Q19.6407 7.33134 19.7003 7.56944Q19.76 7.80755 19.8079 8.04829Q19.8558 8.28904 19.8918 8.53184Q19.9278 8.77465 19.9519 9.01893Q19.9759 9.26321 19.988 9.50837Q20 9.75354 20 9.999L20 96.001Q20 96.2465 19.988 96.4916Q19.9759 96.7368 19.9519 96.9811Q19.9278 97.2253 19.8918 97.4681Q19.8558 97.7109 19.8079 97.9517Q19.76 98.1924 19.7003 98.4305Q19.6407 98.6686 19.5694 98.9035Q19.4982 99.1384 19.4155 99.3695Q19.3328 99.6007 19.2389 99.8274Q19.1449 100.054 19.04 100.276Q18.935 100.498 18.8193 100.714Q18.7036 100.931 18.5774 101.142Q18.4512 101.352 18.3149 101.556Q18.1785 101.76 18.0323 101.957Q17.886 102.155 17.7303 102.344Q17.5746 102.534 17.4098 102.716Q17.2449 102.898 17.0714 103.071Q16.8978 103.245 16.7159 103.41Q16.534 103.575 16.3443 103.73Q16.1546 103.886 15.9574 104.032Q15.7602 104.178 15.5561 104.315Q15.352 104.451 15.1415 104.577Q14.931 104.704 14.7145 104.819Q14.498 104.935 14.2761 105.04Q14.0542 105.145 13.8274 105.239Q13.6007 105.333 13.3696 105.415Q13.1384 105.498 12.9036 105.569Q12.6687 105.641 12.4306 105.7Q12.1925 105.76 11.9517 105.808Q11.711 105.856 11.4682 105.892Q11.2254 105.928 10.9811 105.952Q10.7368 105.976 10.4916 105.988Q10.2465 106 10.001 106L9.999 106Q9.75354 106 9.50837 105.988Q9.26321 105.976 9.01893 105.952Q8.77465 105.928 8.53184 105.892Q8.28904 105.856 8.04829 105.808Q7.80755 105.76 7.56944 105.7Q7.33133 105.641 7.09644 105.569Q6.86155 105.498 6.63044 105.415Q6.39932 105.333 6.17255 105.239Q5.94577 105.145 5.72387 105.04Q5.50198 104.935 5.2855 104.819Q5.06902 104.704 4.85849 104.577Q4.64795 104.451 4.44385 104.315Q4.23976 104.178 4.0426 104.032Q3.84545 103.886 3.6557 103.73Q3.46596 103.575 3.28408 103.41Q3.10221 103.245 2.92864 103.071Q2.75507 102.898 2.59023 102.716Q2.42539 102.534 2.26967 102.344Q2.11395 102.155 1.96773 101.957Q1.82151 101.76 1.68514 101.556Q1.54876 101.352 1.42257 101.142Q1.29638 100.931 1.18067 100.714Q1.06496 100.498 0.960011 100.276Q0.855062 100.054 0.761128 99.8274Q0.667194 99.6007 0.584501 99.3695Q0.501807 99.1384 0.430553 98.9035Q0.3593 98.6686 0.299657 98.4305Q0.240015 98.1924 0.192128 97.9517Q0.144241 97.7109 0.108224 97.4682Q0.0722074 97.2253 0.0481479 96.9811Q0.0240885 96.7368 0.0120442 96.4916Q0 96.2465 0 96.001L0 9.999Q0 9.75354 0.0120442 9.50837Q0.0240885 9.26321 0.0481479 9.01893Q0.0722074 8.77465 0.108224 8.53184Q0.144241 8.28904 0.192128 8.04829Q0.240015 7.80755 0.299657 7.56944Q0.3593 7.33133 0.430553 7.09644Q0.501807 6.86155 0.584501 6.63044Q0.667194 6.39932 0.761128 6.17255Q0.855062 5.94577 0.960011 5.72387Q1.06496 5.50198 1.18067 5.2855Q1.29638 5.06902 1.42257 4.85849Q1.54876 4.64795 1.68514 4.44385Q1.82151 4.23976 1.96773 4.0426Q2.11395 3.84545 2.26967 3.6557Q2.42539 3.46596 2.59023 3.28408Q2.75507 3.10221 2.92864 2.92864Q3.10221 2.75507 3.28408 2.59023Q3.46596 2.42539 3.6557 2.26967Q3.84545 2.11395 4.0426 1.96773Q4.23976 1.82151 4.44385 1.68514Q4.64795 1.54876 4.85849 1.42257Q5.06902 1.29638 5.2855 1.18067Q5.50198 1.06496 5.72387 0.960011Q5.94577 0.855062 6.17255 0.761128Q6.39932 0.667194 6.63044 0.584501Q6.86155 0.501807 7.09644 0.430553Q7.33133 0.3593 7.56944 0.299657Q7.80755 0.240015 8.04829 0.192128Q8.28904 0.144241 8.53184 0.108224Q8.77465 0.0722074 9.01893 0.0481479Q9.26321 0.0240885 9.50837 0.0120442Q9.75354 0 9.999 0Z" transform="matrix(0.8290376 0.5591929 -0.5591929 0.8290376 59.27444 141.5387)" id="Rectangle-5" fill="#333333" stroke="none" />
      <path d="M9.999 0L10.001 0Q10.2465 0 10.4916 0.0120442Q10.7368 0.0240885 10.9811 0.0481479Q11.2254 0.0722074 11.4682 0.108224Q11.711 0.144241 11.9517 0.192128Q12.1925 0.240015 12.4306 0.299657Q12.6687 0.3593 12.9036 0.430553Q13.1384 0.501807 13.3696 0.584501Q13.6007 0.667194 13.8274 0.761128Q14.0542 0.855062 14.2761 0.960011Q14.498 1.06496 14.7145 1.18067Q14.931 1.29638 15.1415 1.42257Q15.352 1.54876 15.5561 1.68514Q15.7602 1.82151 15.9574 1.96773Q16.1546 2.11395 16.3443 2.26967Q16.534 2.42539 16.7159 2.59023Q16.8978 2.75507 17.0714 2.92864Q17.2449 3.10221 17.4098 3.28408Q17.5746 3.46596 17.7303 3.6557Q17.886 3.84545 18.0323 4.0426Q18.1785 4.23976 18.3149 4.44385Q18.4512 4.64795 18.5774 4.85849Q18.7036 5.06903 18.8193 5.2855Q18.935 5.50198 19.04 5.72388Q19.1449 5.94577 19.2389 6.17255Q19.3328 6.39932 19.4155 6.63044Q19.4982 6.86155 19.5694 7.09644Q19.6407 7.33134 19.7003 7.56944Q19.76 7.80755 19.8079 8.04829Q19.8558 8.28904 19.8918 8.53184Q19.9278 8.77465 19.9519 9.01893Q19.9759 9.26321 19.988 9.50837Q20 9.75354 20 9.999L20 96.001Q20 96.2465 19.988 96.4916Q19.9759 96.7368 19.9519 96.9811Q19.9278 97.2253 19.8918 97.4681Q19.8558 97.7109 19.8079 97.9517Q19.76 98.1924 19.7003 98.4305Q19.6407 98.6686 19.5694 98.9035Q19.4982 99.1384 19.4155 99.3695Q19.3328 99.6007 19.2389 99.8274Q19.1449 100.054 19.04 100.276Q18.935 100.498 18.8193 100.714Q18.7036 100.931 18.5774 101.142Q18.4512 101.352 18.3149 101.556Q18.1785 101.76 18.0323 101.957Q17.886 102.155 17.7303 102.344Q17.5746 102.534 17.4098 102.716Q17.2449 102.898 17.0714 103.071Q16.8978 103.245 16.7159 103.41Q16.534 103.575 16.3443 103.73Q16.1546 103.886 15.9574 104.032Q15.7602 104.178 15.5561 104.315Q15.3521 104.451 15.1415 104.577Q14.931 104.704 14.7145 104.819Q14.498 104.935 14.2761 105.04Q14.0542 105.145 13.8274 105.239Q13.6007 105.333 13.3696 105.415Q13.1384 105.498 12.9036 105.569Q12.6687 105.641 12.4306 105.7Q12.1925 105.76 11.9517 105.808Q11.711 105.856 11.4682 105.892Q11.2254 105.928 10.9811 105.952Q10.7368 105.976 10.4916 105.988Q10.2465 106 10.001 106L9.999 106Q9.75354 106 9.50837 105.988Q9.26321 105.976 9.01893 105.952Q8.77465 105.928 8.53184 105.892Q8.28904 105.856 8.04829 105.808Q7.80755 105.76 7.56944 105.7Q7.33134 105.641 7.09644 105.569Q6.86155 105.498 6.63044 105.415Q6.39932 105.333 6.17255 105.239Q5.94577 105.145 5.72388 105.04Q5.50198 104.935 5.2855 104.819Q5.06903 104.704 4.85849 104.577Q4.64795 104.451 4.44385 104.315Q4.23976 104.178 4.0426 104.032Q3.84545 103.886 3.6557 103.73Q3.46596 103.575 3.28408 103.41Q3.10221 103.245 2.92864 103.071Q2.75507 102.898 2.59023 102.716Q2.42539 102.534 2.26967 102.344Q2.11395 102.155 1.96773 101.957Q1.82151 101.76 1.68514 101.556Q1.54876 101.352 1.42257 101.142Q1.29638 100.931 1.18067 100.714Q1.06496 100.498 0.960011 100.276Q0.855062 100.054 0.761128 99.8274Q0.667194 99.6007 0.584501 99.3695Q0.501807 99.1384 0.430553 98.9035Q0.3593 98.6686 0.299657 98.4305Q0.240015 98.1924 0.192128 97.9517Q0.144241 97.7109 0.108224 97.4682Q0.0722074 97.2253 0.0481479 96.9811Q0.0240885 96.7368 0.0120442 96.4916Q0 96.2465 0 96.001L0 9.999Q0 9.75354 0.0120442 9.50837Q0.0240885 9.26321 0.0481479 9.01893Q0.0722074 8.77465 0.108224 8.53184Q0.144241 8.28904 0.192128 8.04829Q0.240015 7.80755 0.299657 7.56944Q0.3593 7.33134 0.430553 7.09644Q0.501807 6.86155 0.584501 6.63044Q0.667194 6.39932 0.761128 6.17255Q0.855062 5.94577 0.960011 5.72388Q1.06496 5.50198 1.18067 5.2855Q1.29638 5.06903 1.42257 4.85849Q1.54876 4.64795 1.68514 4.44385Q1.82151 4.23976 1.96773 4.0426Q2.11395 3.84545 2.26967 3.6557Q2.42539 3.46596 2.59023 3.28408Q2.75507 3.10221 2.92864 2.92864Q3.10221 2.75507 3.28408 2.59023Q3.46596 2.42539 3.6557 2.26967Q3.84545 2.11395 4.0426 1.96773Q4.23976 1.82151 4.44385 1.68514Q4.64795 1.54876 4.85849 1.42257Q5.06903 1.29638 5.2855 1.18067Q5.50198 1.06496 5.72388 0.960011Q5.94577 0.855062 6.17255 0.761128Q6.39932 0.667194 6.63044 0.584501Q6.86155 0.501807 7.09644 0.430553Q7.33134 0.3593 7.56944 0.299657Q7.80755 0.240015 8.04829 0.192128Q8.28904 0.144241 8.53184 0.108224Q8.77465 0.0722074 9.01893 0.0481479Q9.26321 0.0240885 9.50837 0.0120442Q9.75354 0 9.999 0Z" transform="matrix(0.8290376 -0.5591929 0.5591929 0.8290376 73.07733 153.3368)" id="Rectangle-6" fill="#333333" stroke="none" />
    </g>
    <g id="Group-2" transform="translate(147.0574 27.76981)">
      <path d="M0 22.098C0 9.89362 9.31844 0 20.8133 0C32.3082 0 41.6266 9.89362 41.6266 22.098C41.6266 34.3024 32.3082 44.196 20.8133 44.196C9.31844 44.196 0 34.3024 0 22.098Z" transform="translate(43.1795 0)" id="Rectangle-7" fill="#333333" stroke="none" />
      <path d="M16.6496 0L16.6516 0Q17.0604 0 17.4686 0.0200552Q17.8768 0.0401104 18.2836 0.0801725Q18.6903 0.120235 19.0946 0.180207Q19.4989 0.24018 19.8998 0.319918Q20.3007 0.399656 20.6972 0.498969Q21.0936 0.598281 21.4848 0.716928Q21.8759 0.835575 22.2607 0.97327Q22.6456 1.11097 23.0232 1.26738Q23.4008 1.42379 23.7703 1.59854Q24.1398 1.7733 24.5002 1.96597Q24.8607 2.15864 25.2113 2.36877Q25.5618 2.57889 25.9017 2.80597Q26.2415 3.03305 26.5698 3.27652Q26.8981 3.52 27.2141 3.77929Q27.53 4.03859 27.8328 4.31307Q28.1357 4.58755 28.4247 4.87657Q28.7137 5.16558 28.9882 5.46842Q29.2627 5.77127 29.522 6.08722Q29.7813 6.40317 30.0247 6.73146Q30.2682 7.05975 30.4953 7.39959Q30.7224 7.73944 30.9325 8.09001Q31.1426 8.44059 31.3353 8.80105Q31.528 9.16152 31.7027 9.531Q31.8775 9.90048 32.0339 10.2781Q32.1903 10.6557 32.328 11.0405Q32.4657 11.4254 32.5843 11.8165Q32.703 12.2076 32.8023 12.6041Q32.9016 13.0006 32.9814 13.4015Q33.0611 13.8023 33.1211 14.2066Q33.181 14.6109 33.2211 15.0177Q33.2612 15.4244 33.2812 15.8327Q33.3013 16.2409 33.3013 16.6496L33.3013 85.8854Q33.3013 86.2941 33.2812 86.7023Q33.2612 87.1105 33.2211 87.5173Q33.181 87.9241 33.1211 88.3284Q33.0611 88.7327 32.9814 89.1335Q32.9016 89.5344 32.8023 89.9309Q32.703 90.3274 32.5843 90.7185Q32.4657 91.1096 32.328 91.4944Q32.1903 91.8793 32.0339 92.2569Q31.8775 92.6345 31.7027 93.004Q31.528 93.3735 31.3353 93.7339Q31.1426 94.0944 30.9325 94.445Q30.7224 94.7955 30.4953 95.1354Q30.2682 95.4752 30.0247 95.8035Q29.7813 96.1318 29.522 96.4478Q29.2627 96.7637 28.9882 97.0666Q28.7137 97.3694 28.4247 97.6584Q28.1357 97.9474 27.8328 98.2219Q27.53 98.4964 27.2141 98.7557Q26.8981 99.015 26.5698 99.2584Q26.2415 99.5019 25.9017 99.729Q25.5618 99.9561 25.2113 100.166Q24.8607 100.376 24.5002 100.569Q24.1398 100.762 23.7703 100.936Q23.4008 101.111 23.0232 101.268Q22.6456 101.424 22.2607 101.562Q21.8759 101.699 21.4848 101.818Q21.0936 101.937 20.6972 102.036Q20.3007 102.135 19.8998 102.215Q19.4989 102.295 19.0946 102.355Q18.6903 102.415 18.2836 102.455Q17.8768 102.495 17.4686 102.515Q17.0604 102.535 16.6516 102.535L16.6496 102.535Q16.2409 102.535 15.8327 102.515Q15.4244 102.495 15.0177 102.455Q14.6109 102.415 14.2066 102.355Q13.8023 102.295 13.4015 102.215Q13.0006 102.135 12.6041 102.036Q12.2076 101.937 11.8165 101.818Q11.4254 101.699 11.0405 101.562Q10.6557 101.424 10.2781 101.268Q9.90048 101.111 9.531 100.936Q9.16152 100.762 8.80105 100.569Q8.44059 100.376 8.09001 100.166Q7.73944 99.9561 7.39959 99.729Q7.05975 99.5019 6.73146 99.2584Q6.40317 99.015 6.08722 98.7557Q5.77127 98.4964 5.46842 98.2219Q5.16558 97.9474 4.87657 97.6584Q4.58755 97.3694 4.31307 97.0666Q4.03859 96.7637 3.77929 96.4478Q3.52 96.1318 3.27652 95.8035Q3.03305 95.4752 2.80597 95.1354Q2.57889 94.7955 2.36877 94.445Q2.15864 94.0944 1.96597 93.7339Q1.7733 93.3735 1.59854 93.004Q1.42379 92.6345 1.26738 92.2569Q1.11097 91.8793 0.97327 91.4944Q0.835575 91.1096 0.716928 90.7185Q0.598281 90.3274 0.498969 89.9309Q0.399656 89.5344 0.319918 89.1335Q0.24018 88.7327 0.180207 88.3284Q0.120235 87.9241 0.0801725 87.5173Q0.0401104 87.1105 0.0200552 86.7023Q0 86.2941 0 85.8854L0 16.6496Q0 16.2409 0.0200552 15.8327Q0.0401104 15.4244 0.0801725 15.0177Q0.120235 14.6109 0.180207 14.2066Q0.24018 13.8023 0.319918 13.4015Q0.399656 13.0006 0.498969 12.6041Q0.598281 12.2076 0.716928 11.8165Q0.835574 11.4254 0.97327 11.0405Q1.11097 10.6557 1.26738 10.2781Q1.42379 9.90048 1.59854 9.531Q1.7733 9.16151 1.96597 8.80105Q2.15864 8.44059 2.36877 8.09001Q2.57889 7.73944 2.80597 7.39959Q3.03305 7.05975 3.27652 6.73146Q3.52 6.40317 3.77929 6.08722Q4.03859 5.77127 4.31307 5.46842Q4.58755 5.16558 4.87656 4.87656Q5.16558 4.58755 5.46842 4.31307Q5.77127 4.03859 6.08722 3.77929Q6.40317 3.52 6.73146 3.27652Q7.05975 3.03305 7.39959 2.80597Q7.73944 2.57889 8.09001 2.36877Q8.44059 2.15864 8.80105 1.96597Q9.16151 1.7733 9.531 1.59854Q9.90048 1.42379 10.2781 1.26738Q10.6557 1.11097 11.0405 0.97327Q11.4254 0.835574 11.8165 0.716928Q12.2076 0.598281 12.6041 0.498969Q13.0006 0.399656 13.4015 0.319918Q13.8023 0.24018 14.2066 0.180207Q14.6109 0.120235 15.0177 0.0801725Q15.4244 0.0401104 15.8327 0.0200552Q16.2409 0 16.6496 0Z" transform="translate(47.34213 44.19603)" id="Rectangle-8" fill="#333333" stroke="none" />
      <path d="M8.48528 0.238417L8.48728 0.238474Q8.6997 0.244442 8.9116 0.260459Q9.1235 0.276475 9.3344 0.302503Q9.5453 0.328532 9.75474 0.364514Q9.96417 0.400496 10.1717 0.446351Q10.3792 0.492206 10.5843 0.547831Q10.7894 0.603456 10.9916 0.668727Q11.1938 0.733997 11.3927 0.808767Q11.5916 0.883537 11.7868 0.967638Q11.982 1.05174 12.1729 1.14498Q12.3639 1.23823 12.5502 1.34041Q12.7365 1.44258 12.9178 1.55347Q13.0991 1.66435 13.2749 1.78369Q13.4507 1.90303 13.6207 2.03056Q13.7907 2.15809 13.9545 2.29352Q14.1182 2.42895 14.2754 2.57198Q14.4325 2.71501 14.5828 2.86532Q14.733 3.01563 14.8759 3.17288Q15.0188 3.33013 15.1542 3.49397Q15.2895 3.65781 15.4169 3.82788Q15.5443 3.99794 15.6636 4.17384Q15.7828 4.34974 15.8936 4.5311Q16.0043 4.71244 16.1064 4.89883Q16.2085 5.08522 16.3016 5.27624Q16.3947 5.46725 16.4787 5.66245Q16.5627 5.85766 16.6373 6.05662Q16.712 6.25558 16.7771 6.45785Q16.8423 6.66012 16.8978 6.86525Q16.9533 7.07038 16.999 7.27791Q17.0447 7.48543 17.0806 7.69489Q17.1164 7.90435 17.1423 8.11527Q17.1682 8.32619 17.1841 8.5381Q17.2 8.75001 17.2058 8.96243L19.0525 76.1779Q19.0581 76.3819 19.0534 76.5859Q19.0486 76.79 19.0335 76.9935Q19.0183 77.197 18.9929 77.3995Q18.9674 77.602 18.9318 77.803Q18.896 78.0039 18.8502 78.2028Q18.8043 78.4017 18.7484 78.598Q18.6925 78.7942 18.6267 78.9874Q18.5609 79.1806 18.4854 79.3702Q18.4098 79.5598 18.3248 79.7453Q18.2397 79.9309 18.1453 80.1118Q18.0509 80.2928 17.9475 80.4687Q17.844 80.6446 17.7318 80.8151Q17.6195 80.9855 17.4987 81.15Q17.3779 81.3146 17.249 81.4727Q17.12 81.6309 16.9832 81.7823Q16.8463 81.9337 16.702 82.078Q16.5576 82.2223 16.4061 82.359Q16.2546 82.4958 16.0963 82.6246Q15.9381 82.7535 15.7735 82.8742Q15.6089 82.9949 15.4384 83.107Q15.2679 83.2192 15.0919 83.3225Q14.9159 83.4258 14.7349 83.5201Q14.5538 83.6144 14.3683 83.6993Q14.1827 83.7843 13.9931 83.8597Q13.8034 83.9351 13.6102 84.0008Q13.4169 84.0665 13.2206 84.1223Q13.0243 84.1781 12.8254 84.2238Q12.6265 84.2696 12.4255 84.3051Q12.2246 84.3407 12.0221 84.366Q11.8195 84.3913 11.616 84.4063Q11.4125 84.4213 11.2084 84.426Q11.0044 84.4306 10.8004 84.4249L10.7984 84.4248Q10.5859 84.4189 10.3741 84.4028Q10.1622 84.3868 9.95125 84.3608Q9.74035 84.3348 9.53091 84.2988Q9.32147 84.2628 9.11398 84.217Q8.90648 84.1711 8.70139 84.1155Q8.49629 84.0599 8.29406 83.9946Q8.09183 83.9293 7.89291 83.8545Q7.694 83.7798 7.49885 83.6957Q7.30369 83.6116 7.11274 83.5183Q6.92179 83.4251 6.73546 83.3229Q6.54913 83.2207 6.36785 83.1098Q6.18657 82.999 6.01074 82.8796Q5.83491 82.7603 5.66493 82.6328Q5.49495 82.5052 5.33119 82.3698Q5.16744 82.2344 5.01027 82.0913Q4.85311 81.9483 4.7029 81.798Q4.55268 81.6477 4.40975 81.4904Q4.26681 81.3332 4.13148 81.1693Q3.99616 81.0055 3.86873 80.8354Q3.74131 80.6654 3.62208 80.4895Q3.50285 80.3136 3.39208 80.1322Q3.28131 79.9509 3.17925 79.7645Q3.07718 79.5781 2.98406 79.3871Q2.89093 79.1961 2.80695 79.0009Q2.72297 78.8056 2.64833 78.6067Q2.57368 78.4077 2.50854 78.2055Q2.44339 78.0032 2.3879 77.798Q2.3324 77.5929 2.28667 77.3854Q2.24095 77.1779 2.2051 76.9684Q2.16924 76.759 2.14335 76.548Q2.11745 76.3371 2.10157 76.1252Q2.08568 75.9133 2.07984 75.7009L0.233133 8.48542Q0.227528 8.28141 0.232294 8.07737Q0.23706 7.87334 0.252186 7.66981Q0.267311 7.46628 0.292757 7.26378Q0.318203 7.06128 0.353903 6.86033Q0.389603 6.65939 0.435465 6.46052Q0.481328 6.26164 0.537234 6.06536Q0.59314 5.86907 0.658946 5.67588Q0.724751 5.48269 0.800287 5.29309Q0.875822 5.10349 0.960891 4.91797Q1.04596 4.73246 1.14034 4.5515Q1.23473 4.37055 1.33818 4.19462Q1.44164 4.01869 1.5539 3.84825Q1.66616 3.6778 1.78693 3.51328Q1.9077 3.34876 2.03668 3.19059Q2.16565 3.03241 2.3025 2.881Q2.43934 2.72958 2.5837 2.58531Q2.72806 2.44104 2.87956 2.30429Q3.03106 2.16754 3.18932 2.03867Q3.34757 1.90979 3.51217 1.78912Q3.67676 1.66845 3.84728 1.5563Q4.01779 1.44414 4.19379 1.3408Q4.36978 1.23745 4.55079 1.14318Q4.73181 1.04891 4.91738 0.963954Q5.10295 0.879 5.29259 0.803583Q5.48224 0.728166 5.67547 0.662481Q5.8687 0.596795 6.06502 0.541011Q6.26134 0.485227 6.46024 0.439489Q6.65914 0.39375 6.86011 0.358175Q7.06108 0.3226 7.26359 0.297281Q7.46611 0.271961 7.66965 0.256962Q7.87319 0.241964 8.07722 0.237324Q8.28126 0.232685 8.48528 0.238417L8.48528 0.238417Z" transform="matrix(0.8290376 0.5591929 -0.5591929 0.8290376 52.68744 53.76056)" id="Rectangle-9" fill="#333333" stroke="none" />
      <path d="M10.7984 0.238483L10.8004 0.238427Q11.0044 0.232695 11.2085 0.237334Q11.4125 0.241973 11.616 0.256971Q11.8196 0.27197 12.0221 0.297289Q12.2246 0.322608 12.4256 0.358183Q12.6265 0.393758 12.8254 0.439496Q13.0243 0.485235 13.2207 0.541018Q13.417 0.596802 13.6102 0.662487Q13.8035 0.728172 13.9931 0.803589Q14.1827 0.879006 14.3683 0.96396Q14.5539 1.04891 14.7349 1.14319Q14.9159 1.23746 15.0919 1.3408Q15.2679 1.44415 15.4384 1.5563Q15.6089 1.66845 15.7735 1.78912Q15.9381 1.90979 16.0964 2.03867Q16.2546 2.16755 16.4061 2.3043Q16.5576 2.44105 16.702 2.58531Q16.8463 2.72958 16.9832 2.881Q17.12 3.03242 17.249 3.19059Q17.378 3.34876 17.4988 3.51329Q17.6195 3.67781 17.7318 3.84825Q17.8441 4.0187 17.9475 4.19462Q18.051 4.37055 18.1453 4.55151Q18.2397 4.73246 18.3248 4.91798Q18.4099 5.1035 18.4854 5.2931Q18.5609 5.48269 18.6267 5.67589Q18.6926 5.86908 18.7485 6.06536Q18.8044 6.26165 18.8502 6.46052Q18.8961 6.65939 18.9318 6.86034Q18.9675 7.06128 18.9929 7.26378Q19.0184 7.46628 19.0335 7.66981Q19.0486 7.87334 19.0534 8.07737Q19.0582 8.28141 19.0526 8.48542L17.2059 75.7008Q17.2 75.9132 17.1841 76.1251Q17.1683 76.337 17.1424 76.5479Q17.1165 76.7589 17.0806 76.9683Q17.0448 77.1778 16.999 77.3853Q16.9533 77.5928 16.8978 77.7979Q16.8423 78.0031 16.7772 78.2053Q16.712 78.4076 16.6374 78.6066Q16.5627 78.8055 16.4788 79.0008Q16.3948 79.196 16.3016 79.387Q16.2085 79.578 16.1065 79.7644Q16.0044 79.9508 15.8936 80.1321Q15.7829 80.3135 15.6636 80.4894Q15.5444 80.6653 15.417 80.8353Q15.2895 81.0054 15.1542 81.1693Q15.0189 81.3331 14.876 81.4903Q14.733 81.6476 14.5828 81.7979Q14.4326 81.9482 14.2754 82.0912Q14.1183 82.2343 13.9545 82.3697Q13.7907 82.5051 13.6208 82.6327Q13.4508 82.7602 13.275 82.8795Q13.0991 82.9989 12.9178 83.1098Q12.7366 83.2206 12.5502 83.3228Q12.3639 83.425 12.173 83.5183Q11.982 83.6115 11.7868 83.6956Q11.5917 83.7797 11.3928 83.8545Q11.1939 83.9293 10.9916 83.9945Q10.7894 84.0598 10.5843 84.1154Q10.3792 84.1711 10.1717 84.2169Q9.96421 84.2628 9.75478 84.2987Q9.54534 84.3347 9.33443 84.3608Q9.12353 84.3868 8.91163 84.4028Q8.69973 84.4188 8.48731 84.4248L8.4853 84.4248Q8.28129 84.4306 8.07725 84.4259Q7.87321 84.4213 7.66967 84.4063Q7.46613 84.3913 7.26362 84.366Q7.0611 84.3407 6.86014 84.3051Q6.65917 84.2695 6.46027 84.2238Q6.26137 84.178 6.06505 84.1223Q5.86873 84.0665 5.67549 84.0008Q5.48226 83.9351 5.29261 83.8597Q5.10297 83.7843 4.9174 83.6993Q4.73182 83.6144 4.55081 83.5201Q4.36979 83.4258 4.1938 83.3225Q4.01781 83.2191 3.8473 83.107Q3.67678 82.9948 3.51218 82.8742Q3.34759 82.7535 3.18933 82.6246Q3.03108 82.4957 2.87958 82.359Q2.72807 82.2222 2.58371 82.078Q2.43935 81.9337 2.30251 81.7823Q2.16566 81.6309 2.03669 81.4727Q1.90771 81.3145 1.78694 81.15Q1.66617 80.9855 1.55391 80.815Q1.44165 80.6446 1.33819 80.4687Q1.23474 80.2927 1.14035 80.1118Q1.04597 79.9308 0.960898 79.7453Q0.875828 79.5598 0.800293 79.3702Q0.724757 79.1806 0.658951 78.9874Q0.593146 78.7942 0.537239 78.5979Q0.481333 78.4016 0.43547 78.2028Q0.389608 78.0039 0.353908 77.8029Q0.318208 77.602 0.292762 77.3995Q0.267316 77.197 0.252191 76.9935Q0.237065 76.7899 0.232299 76.5859Q0.227533 76.3819 0.233138 76.1778L2.07988 8.96245Q2.08572 8.75002 2.1016 8.53812Q2.11749 8.32621 2.14338 8.11529Q2.16928 7.90437 2.20513 7.69491Q2.24098 7.48545 2.28671 7.27793Q2.33244 7.0704 2.38793 6.86527Q2.44343 6.66014 2.50858 6.45787Q2.57372 6.2556 2.64837 6.05664Q2.72301 5.85768 2.80699 5.66247Q2.89097 5.46726 2.9841 5.27625Q3.07722 5.08524 3.17929 4.89885Q3.28135 4.71246 3.39212 4.53111Q3.50289 4.34976 3.62212 4.17386Q3.74135 3.99796 3.86877 3.82789Q3.99619 3.65783 4.13152 3.49399Q4.26685 3.33015 4.40979 3.1729Q4.55272 3.01565 4.70293 2.86534Q4.85315 2.71503 5.01031 2.572Q5.16748 2.42897 5.33123 2.29353Q5.49499 2.1581 5.66497 2.03057Q5.83495 1.90305 6.01078 1.78371Q6.18661 1.66437 6.36789 1.55348Q6.54917 1.4426 6.7355 1.34042Q6.92183 1.23824 7.11278 1.145Q7.30373 1.05175 7.49889 0.967651Q7.69404 0.88355 7.89295 0.80878Q8.09187 0.73401 8.2941 0.668739Q8.49633 0.603468 8.70143 0.547843Q8.90652 0.492217 9.11402 0.446362Q9.32151 0.400507 9.53095 0.364525Q9.74038 0.328543 9.95129 0.302514Q10.1622 0.276485 10.3741 0.260469Q10.586 0.244452 10.7984 0.238483L10.7984 0.238483Z" transform="matrix(0.8290376 -0.5591929 0.5591929 0.8290376 59.66129 63.29269)" id="Rectangle-10" fill="#333333" stroke="none" />
      <path d="M8.4853 0.238404L8.4873 0.23846Q8.69972 0.244429 8.91162 0.260445Q9.12352 0.276461 9.33443 0.302489Q9.54533 0.328517 9.75477 0.364499Q9.9642 0.400481 10.1717 0.446335Q10.3792 0.49219 10.5843 0.547815Q10.7894 0.60344 10.9916 0.668711Q11.1938 0.733981 11.3928 0.808751Q11.5917 0.883521 11.7868 0.967622Q11.982 1.05172 12.1729 1.14497Q12.3639 1.23821 12.5502 1.34039Q12.7365 1.44257 12.9178 1.55345Q13.0991 1.66434 13.2749 1.78367Q13.4508 1.90301 13.6208 2.03054Q13.7907 2.15807 13.9545 2.2935Q14.1182 2.42894 14.2754 2.57197Q14.4326 2.715 14.5828 2.86531Q14.733 3.01562 14.8759 3.17287Q15.0189 3.33012 15.1542 3.49396Q15.2895 3.6578 15.417 3.82786Q15.5444 3.99793 15.6636 4.17383Q15.7828 4.34973 15.8936 4.53108Q16.0044 4.71243 16.1064 4.89882Q16.2085 5.08521 16.3016 5.27622Q16.3948 5.46724 16.4787 5.66244Q16.5627 5.85765 16.6374 6.05661Q16.712 6.25557 16.7772 6.45784Q16.8423 6.66012 16.8978 6.86525Q16.9533 7.07037 16.999 7.2779Q17.0447 7.48543 17.0806 7.69488Q17.1164 7.90434 17.1423 8.11526Q17.1682 8.32618 17.1841 8.53809Q17.2 8.75 17.2058 8.96243L19.0525 76.1779Q19.0581 76.382 19.0533 76.586Q19.0486 76.79 19.0335 76.9936Q19.0183 77.1971 18.9929 77.3996Q18.9674 77.6021 18.9317 77.803Q18.896 78.004 18.8502 78.2028Q18.8043 78.4017 18.7484 78.598Q18.6925 78.7943 18.6267 78.9875Q18.5609 79.1806 18.4853 79.3702Q18.4098 79.5598 18.3247 79.7454Q18.2397 79.9309 18.1453 80.1118Q18.0509 80.2928 17.9475 80.4687Q17.844 80.6446 17.7317 80.8151Q17.6195 80.9855 17.4987 81.1501Q17.3779 81.3146 17.249 81.4727Q17.12 81.6309 16.9831 81.7823Q16.8463 81.9337 16.7019 82.078Q16.5576 82.2223 16.4061 82.359Q16.2546 82.4958 16.0963 82.6246Q15.9381 82.7535 15.7735 82.8742Q15.6089 82.9949 15.4384 83.107Q15.2678 83.2192 15.0919 83.3225Q14.9159 83.4259 14.7349 83.5201Q14.5538 83.6144 14.3683 83.6993Q14.1827 83.7843 13.9931 83.8597Q13.8034 83.9351 13.6102 84.0008Q13.4169 84.0665 13.2206 84.1223Q13.0243 84.1781 12.8254 84.2238Q12.6265 84.2695 12.4255 84.3051Q12.2246 84.3407 12.0221 84.366Q11.8196 84.3913 11.616 84.4063Q11.4125 84.4213 11.2084 84.426Q11.0044 84.4306 10.8004 84.4249L10.7984 84.4248Q10.586 84.4188 10.3741 84.4028Q10.1622 84.3868 9.95127 84.3608Q9.74037 84.3347 9.53093 84.2988Q9.3215 84.2628 9.114 84.2169Q8.9065 84.1711 8.70141 84.1154Q8.49632 84.0598 8.29409 83.9945Q8.09186 83.9293 7.89294 83.8545Q7.69403 83.7797 7.49888 83.6956Q7.30372 83.6115 7.11277 83.5183Q6.92182 83.425 6.73549 83.3229Q6.54917 83.2207 6.36789 83.1098Q6.18661 82.9989 6.01078 82.8796Q5.83495 82.7602 5.66497 82.6327Q5.49499 82.5052 5.33123 82.3697Q5.16748 82.2343 5.01032 82.0913Q4.85315 81.9483 4.70294 81.7979Q4.55272 81.6476 4.40979 81.4904Q4.26686 81.3331 4.13153 81.1693Q3.9962 81.0054 3.86878 80.8354Q3.74136 80.6653 3.62213 80.4894Q3.5029 80.3135 3.39213 80.1322Q3.28136 79.9508 3.1793 79.7644Q3.07724 79.578 2.98411 79.387Q2.89099 79.196 2.80701 79.0008Q2.72303 78.8056 2.64838 78.6066Q2.57374 78.4077 2.50859 78.2054Q2.44345 78.0031 2.38795 77.798Q2.33245 77.5929 2.28673 77.3853Q2.241 77.1778 2.20515 76.9684Q2.1693 76.7589 2.1434 76.548Q2.11751 76.3371 2.10162 76.1252Q2.08574 75.9132 2.0799 75.7008L0.23314 8.48545Q0.227535 8.28143 0.232301 8.0774Q0.237067 7.87336 0.252192 7.66983Q0.267318 7.4663 0.292763 7.2638Q0.318209 7.0613 0.353909 6.86035Q0.389609 6.65941 0.435472 6.46053Q0.481334 6.26166 0.53724 6.06538Q0.593146 5.86909 0.658952 5.6759Q0.724758 5.48271 0.800293 5.29311Q0.875828 5.10351 0.960898 4.91799Q1.04597 4.73247 1.14035 4.55151Q1.23474 4.37056 1.33819 4.19463Q1.44165 4.0187 1.55391 3.84826Q1.66617 3.67781 1.78694 3.51329Q1.90771 3.34877 2.03669 3.19059Q2.16566 3.03242 2.30251 2.881Q2.43935 2.72958 2.58371 2.58531Q2.72807 2.44104 2.87957 2.30429Q3.03108 2.16754 3.18933 2.03867Q3.34758 1.90979 3.51218 1.78912Q3.67678 1.66845 3.84729 1.55629Q4.01781 1.44414 4.1938 1.34079Q4.36979 1.23745 4.55081 1.14318Q4.73182 1.0489 4.91739 0.963949Q5.10296 0.878994 5.29261 0.803576Q5.48225 0.728159 5.67549 0.662473Q5.86872 0.596787 6.06504 0.541003Q6.26136 0.485218 6.46026 0.439479Q6.65916 0.393741 6.86013 0.358165Q7.0611 0.32259 7.26362 0.29727Q7.46613 0.27195 7.66967 0.256951Q7.87321 0.241951 8.07725 0.237312Q8.28129 0.232672 8.4853 0.238404L8.4853 0.238404Z" transform="matrix(0.8290376 0.5591929 -0.5591929 0.8290376 47.34314 131.7137)" id="Rectangle-11" fill="#333333" stroke="none" />
      <path d="M10.7983 0.238514L10.8003 0.238458Q11.0044 0.232724 11.2084 0.237363Q11.4124 0.242001 11.616 0.256999Q11.8195 0.271997 12.022 0.297316Q12.2246 0.322635 12.4255 0.35821Q12.6265 0.393784 12.8254 0.439523Q13.0243 0.485261 13.2206 0.541045Q13.4169 0.596828 13.6102 0.662514Q13.8034 0.728199 13.9931 0.803616Q14.1827 0.879033 14.3683 0.963987Q14.5538 1.04894 14.7349 1.14321Q14.9159 1.23749 15.0919 1.34083Q15.2679 1.44418 15.4384 1.55633Q15.6089 1.66848 15.7735 1.78916Q15.9381 1.90983 16.0963 2.0387Q16.2546 2.16758 16.4061 2.30433Q16.5576 2.44108 16.702 2.58535Q16.8463 2.72962 16.9832 2.88104Q17.12 3.03246 17.249 3.19063Q17.378 3.34881 17.4988 3.51333Q17.6195 3.67785 17.7318 3.8483Q17.844 4.01875 17.9475 4.19467Q18.051 4.3706 18.1453 4.55156Q18.2397 4.73252 18.3248 4.91804Q18.4099 5.10355 18.4854 5.29316Q18.5609 5.48276 18.6267 5.67595Q18.6926 5.86914 18.7485 6.06543Q18.8044 6.26172 18.8502 6.46059Q18.8961 6.65946 18.9318 6.86041Q18.9675 7.06136 18.9929 7.26386Q19.0184 7.46636 19.0335 7.66989Q19.0486 7.87342 19.0534 8.07746Q19.0582 8.2815 19.0526 8.48551L17.2058 75.701Q17.1999 75.9134 17.184 76.1253Q17.1682 76.3372 17.1423 76.5481Q17.1164 76.7591 17.0805 76.9685Q17.0447 77.178 16.9989 77.3855Q16.9532 77.593 16.8977 77.7981Q16.8422 78.0033 16.7771 78.2055Q16.7119 78.4078 16.6373 78.6068Q16.5626 78.8057 16.4787 79.0009Q16.3947 79.1962 16.3016 79.3872Q16.2084 79.5782 16.1064 79.7645Q16.0043 79.9509 15.8935 80.1323Q15.7828 80.3136 15.6635 80.4895Q15.5443 80.6654 15.4169 80.8355Q15.2895 81.0056 15.1541 81.1694Q15.0188 81.3332 14.8759 81.4905Q14.7329 81.6478 14.5827 81.7981Q14.4325 81.9484 14.2753 82.0914Q14.1182 82.2344 13.9544 82.3699Q13.7907 82.5053 13.6207 82.6328Q13.4507 82.7604 13.2749 82.8797Q13.099 82.999 12.9178 83.1099Q12.7365 83.2208 12.5502 83.323Q12.3638 83.4251 12.1729 83.5184Q11.9819 83.6116 11.7868 83.6957Q11.5916 83.7798 11.3927 83.8546Q11.1938 83.9294 10.9916 83.9946Q10.7893 84.0599 10.5842 84.1155Q10.3791 84.1712 10.1716 84.217Q9.96415 84.2629 9.75471 84.2988Q9.54528 84.3348 9.33438 84.3609Q9.12347 84.3869 8.91158 84.4029Q8.69968 84.4189 8.48726 84.4249L8.48525 84.4249Q8.28124 84.4307 8.0772 84.426Q7.87316 84.4214 7.66962 84.4064Q7.46608 84.3914 7.26357 84.3661Q7.06106 84.3408 6.86009 84.3052Q6.65912 84.2696 6.46022 84.2239Q6.26132 84.1781 6.065 84.1223Q5.86868 84.0666 5.67545 84.0009Q5.48222 83.9352 5.29257 83.8598Q5.10293 83.7843 4.91736 83.6994Q4.73179 83.6144 4.55077 83.5202Q4.36976 83.4259 4.19377 83.3225Q4.01778 83.2192 3.84726 83.107Q3.67675 82.9949 3.51215 82.8742Q3.34756 82.7535 3.1893 82.6247Q3.03105 82.4958 2.87955 82.359Q2.72805 82.2223 2.58369 82.078Q2.43933 81.9338 2.30248 81.7823Q2.16564 81.6309 2.03667 81.4727Q1.90769 81.3146 1.78692 81.15Q1.66615 80.9855 1.55389 80.8151Q1.44163 80.6446 1.33817 80.4687Q1.23472 80.2928 1.14033 80.1118Q1.04595 79.9309 0.96088 79.7454Q0.875811 79.5598 0.800276 79.3702Q0.724741 79.1806 0.658935 78.9874Q0.593129 78.7943 0.537223 78.598Q0.481317 78.4017 0.435455 78.2028Q0.389592 78.0039 0.353892 77.803Q0.318192 77.6021 0.292746 77.3996Q0.2673 77.1971 0.252174 76.9935Q0.237048 76.79 0.232282 76.586Q0.227515 76.3819 0.23312 76.1779L2.07973 8.9626Q2.08557 8.75018 2.10145 8.53826Q2.11734 8.32635 2.14323 8.11543Q2.16913 7.90451 2.20498 7.69505Q2.24083 7.48559 2.28656 7.27806Q2.33229 7.07053 2.38778 6.8654Q2.44328 6.66027 2.50843 6.45799Q2.57357 6.25572 2.64822 6.05676Q2.72286 5.85779 2.80684 5.66258Q2.89082 5.46738 2.98395 5.27636Q3.07708 5.08535 3.17914 4.89896Q3.2812 4.71256 3.39197 4.53121Q3.50275 4.34986 3.62198 4.17395Q3.74121 3.99805 3.86863 3.82798Q3.99605 3.65792 4.13138 3.49408Q4.26672 3.33023 4.40965 3.17298Q4.55258 3.01573 4.7028 2.86541Q4.85302 2.7151 5.01018 2.57207Q5.16735 2.42904 5.3311 2.2936Q5.49486 2.15817 5.66485 2.03064Q5.83483 1.90311 6.01066 1.78377Q6.18649 1.66443 6.36777 1.55354Q6.54906 1.44266 6.73538 1.34048Q6.92171 1.2383 7.11267 1.14505Q7.30362 1.0518 7.49878 0.9677Q7.69393 0.883597 7.89285 0.808826Q8.09177 0.734054 8.294 0.668782Q8.49623 0.60351 8.70133 0.547883Q8.90643 0.492257 9.11393 0.4464Q9.32143 0.400544 9.53086 0.364561Q9.7403 0.328578 9.95121 0.302548Q10.1621 0.276518 10.374 0.260501Q10.5859 0.244483 10.7983 0.238514L10.7983 0.238514Z" transform="matrix(0.8290376 -0.5591929 0.5591929 0.8290376 65.03049 143.0411)" id="Rectangle-12" fill="#333333" stroke="none" />
      <path d="M47.4543 0L94.9086 85.7403L0 85.7403L47.4543 0Z" transform="translate(17.1698 73.55527)" id="Triangle" fill="#333333" stroke="none" />
    </g>
  </g>
</svg>